<svg viewBox="0 0 24 24" width="24px" height="24px" x="0" y="0" preserveAspectRatio="xMinYMin meet" class="artdeco-icon">
    <g class="large-icon" style="fill: currentColor">
        <path d="M22,12a10,10,0,0,1-1.22,4.79L19,16.09A8.12,8.12,0,1,0,3.88,12,8.06,8.06,0,0,0,5,16.09l-1.77.7A10,10,0,1,1,22,12Zm-7,4.66,3.55,1.43a0.75,0.75,0,0,1,.24,1.25,10,10,0,0,1-13.58,0,0.75,0.75,0,0,1,.24-1.25L9,16.66V14.83A8,8,0,0,1,8,11V10a4,4,0,0,1,8,0v1a8,8,0,0,1-1,3.86v1.84Zm-5-5.51A6,6,0,0,0,10.71,14L11,14.6a1,1,0,0,0,.88.53h0.16A1,1,0,0,0,13,14.6L13.29,14A6,6,0,0,0,14,11.16V9.85a2,2,0,0,0-4,0v1.3Zm3,6.76v-1.1A3,3,0,0,1,12,17H12a3,3,0,0,1-1-.18v1.1L8.06,19.1a8.07,8.07,0,0,0,7.89,0Z"></path>
    </g>
</svg>